#!OML:ASF F:\twosubjects\two\wednesday\Session 1\rory1.ASF
:FULLY-SPECIFIED
:DEGREES
1163
root 2.17742 18.0269 40.2245 187.205 31.9243 -178.702
lowerback 15.4489 3.42627 -0.358436
upperback 4.10736 4.86143 0.182347
thorax -4.31695 2.55949 -0.533751
lowerneck 1.7352 3.47826 8.58967
upperneck 0.126234 4.98144 -13.1069
head 0.301418 2.60248 -5.34139
rclavicle 6.2816e-014 -3.22031e-014
rhumerus -36.5835 -19.0359 -68.6336
rradius 33.5048
rwrist -1.40888
rhand -23.1749 46.4545
rfingers 7.12502
rthumb 3.27418 16.4999
lclavicle 6.2816e-014 -3.22031e-014
lhumerus -28.1801 -0.906379 80.9796
lradius 41.4738
lwrist 12.0731
lhand -23.3826 4.53373
lfingers 7.12502
lthumb 3.07361 -325.509
rfemur -40.5851 6.90179 5.85664
rtibia 39.865
rfoot -11.7886 -14.8592
rtoes 16.8003
lfemur -12.3971 10.0556 -16.6953
ltibia 44.0172
lfoot -30.6663 12.4676
ltoes -33.1752
1164
root 2.11087 18.0578 40.277 187.428 31.8965 -178.73
lowerback 14.5639 3.36392 -0.477136
upperback 4.73524 4.81357 0.106742
thorax -3.18303 2.56472 -0.447475
lowerneck 1.09806 3.69891 8.41821
upperneck -0.59936 5.15728 -12.8948
head 0.207167 2.67567 -5.23843
rclavicle -3.44891e-014 1.2921e-014
rhumerus -34.8144 -19.7771 -69.0961
rradius 32.7727
rwrist -0.886901
rhand -21.5995 48.8785
rfingers 7.12502
rthumb 4.79546 18.9528
lclavicle -3.44891e-014 1.2921e-014
lhumerus -27.206 -0.810303 80.8479
lradius 42.2082
lwrist 11.8675
lhand -23.8162 4.5953
lfingers 7.12502
lthumb 2.65488 -325.441
rfemur -40.549 6.83425 6.01142
rtibia 41.1033
rfoot -12.3325 -13.9153
rtoes 21.073
lfemur -13.008 10.4503 -16.9054
ltibia 44.352
lfoot -30.9488 11.7448
ltoes -30.6905
1165
root 2.04653 18.0855 40.3309 187.67 31.8681 -178.967
lowerback 13.4565 3.31307 -0.882953
upperback 5.2145 4.73467 0.138327
thorax -2.12011 2.53886 -0.077901
lowerneck 1.06106 3.75707 8.27305
upperneck -1.44404 5.16947 -13.1519
head -0.0266425 2.70301 -5.30337
rclavicle 7.0171e-014 1.21259e-014
rhumerus -33.4004 -19.4373 -69.6532
rradius 32.9957
rwrist -1.31491
rhand -20.8764 49.2755
rfingers 7.12502
rthumb 5.49371 19.3667
lclavicle 7.0171e-014 1.21259e-014
lhumerus -26.7607 -0.646027 80.9341
lradius 43.126
lwrist 11.8937
lhand -22.7875 3.47421
lfingers 7.12502
lthumb 3.64833 -326.577
rfemur -40.7613 6.5751 6.09378
rtibia 42.5686
rfoot -11.9807 -13.4344
rtoes 21.0463
lfemur -13.8928 10.8538 -17.305
ltibia 44.738
lfoot -30.9456 11.2618
ltoes -29.4404
1166
root 1.9856 18.0997 40.3877 187.599 31.6798 -179.319
lowerback 13.3574 3.21652 -1.18069
upperback 5.24885 4.5714 0.0512513
thorax -2.04412 2.45683 0.030387
lowerneck 1.13144 3.6717 8.18529
upperneck -1.86545 5.02446 -13.1891
head -0.177606 2.64408 -5.30979
rclavicle -8.85586e-014 2.40529e-014
rhumerus -33.034 -17.9783 -70.5083
rradius 34.4611
rwrist -2.53186
rhand -22.2329 46.808
rfingers 7.12502
rthumb 4.18387 16.8694
lclavicle -8.85586e-014 2.40529e-014
lhumerus -26.9224 -0.857276 80.9437
lradius 44.0343
lwrist 12.2214
lhand -23.5086 3.51048
lfingers 7.12502
lthumb 2.95197 -326.53
rfemur -40.6951 6.08714 6.25806
rtibia 44.2073
rfoot -11.2026 -13.3395
rtoes 17.9056
lfemur -14.5786 11.0215 -17.7463
ltibia 45.1385
lfoot -30.7279 10.9501
ltoes -28.8363
1167
root 1.92511 18.0864 40.4474 187.338 31.3361 -179.794
lowerback 13.8026 3.10365 -1.5747
upperback 4.93744 4.33779 0.0923242
thorax -2.63711 2.32885 0.286669
lowerneck 1.43833 3.67997 7.6309
upperneck -1.65329 5.06654 -12.9816
head -0.182999 2.67416 -5.15723
rclavicle 6.62947e-014 -2.06736e-014
rhumerus -33.64 -19.4391 -68.571
rradius 33.7513
rwrist 4.79289
rhand -18.3653 50.5335
rfingers 7.12502
rthumb 7.9178 20.7018
lclavicle 6.62947e-014 -2.06736e-014
lhumerus -27.9149 -0.952784 81.1377
lradius 45.183
lwrist 12.7259
lhand -23.0016 3.26418
lfingers 7.12502
lthumb 3.4416 -326.784
rfemur -40.4083 5.01597 6.51505
rtibia 45.9657
rfoot -10.0203 -13.2512
rtoes 11.9971
lfemur -15.0916 11.0543 -18.2566
ltibia 45.5257
lfoot -30.4256 10.6562
ltoes -27.8624
